<svg id="Mail-Icon-SVG-poekkfd" xmlns="http://www.w3.org/2000/svg" width="18" height="16.5" viewBox="0 0 18 16.5">
  <path fill="#FFF" id="Vector" d="M14.25,0H3.75A3.755,3.755,0,0,0,0,3.75v9A3.754,3.754,0,0,0,3.75,16.5h10.5A3.754,3.754,0,0,0,18,12.75v-9A3.754,3.754,0,0,0,14.25,0ZM3.75,1.5h10.5a2.25,2.25,0,0,1,2.085,1.415L10.591,8.66a2.255,2.255,0,0,1-3.183,0L1.665,2.915A2.25,2.25,0,0,1,3.75,1.5ZM14.25,15H3.75A2.25,2.25,0,0,1,1.5,12.75V4.875L6.348,9.72a3.755,3.755,0,0,0,5.3,0L16.5,4.875V12.75A2.25,2.25,0,0,1,14.25,15Z"/>
</svg>
